<svg xmlns="http://www.w3.org/2000/svg" fill="none" viewBox="0 0 14 12"><path fill="#fff" fill-rule="evenodd" d="M4.752 1.189c.694 0 1.327.277 1.822.752L7.98 3.347l.832-.831L7.406 1.11A3.75 3.75 0 0 0 4.752 0C3.742 0 2.812.398 2.1 1.11A3.75 3.75 0 0 0 .99 3.763c0 .99.396 1.94 1.109 2.654l1.406 1.406.832-.832L2.93 5.585a2.53 2.53 0 0 1-.753-1.822c0-.693.277-1.327.753-1.822.475-.495 1.128-.752 1.821-.752Zm5.743 2.988-.832.832 1.406 1.406a2.53 2.53 0 0 1 .753 1.822 2.6 2.6 0 0 1-.753 1.822 2.53 2.53 0 0 1-1.821.752 2.6 2.6 0 0 1-1.822-.752L6.02 8.653l-.832.831 1.406 1.406A3.75 3.75 0 0 0 9.248 12c1.01 0 1.94-.397 2.653-1.11a3.75 3.75 0 0 0 1.109-2.653c0-.99-.396-1.94-1.109-2.654zM5.73 3.901l-.84.84L8.25 8.1l.84-.84z" clip-rule="evenodd"/></svg>
